<svg id="Layer_1" data-name="Layer 1" xmlns="http://www.w3.org/2000/svg" viewBox="0 0 612.06 499.29"><defs><style>.cls-1{fill:#727272;}.cls-2{fill:#fafafa;}.cls-3{fill:#f7f7f7;}.cls-4{fill:#f6f6f6;}.cls-5{fill:#f9f9f9;}.cls-6{fill:#f8f8f8;}.cls-7{fill:#eee;}.cls-8{fill:#f1f1f1;}.cls-9{fill:#f3f3f3;}.cls-10{fill:#f5f5f5;}.cls-11{fill:#f0f0f0;}.cls-12{fill:#f2f2f2;}.cls-13{fill:#efefef;}.cls-14{fill:#ececec;}.cls-15{fill:#ededed;}.cls-16{fill:#1b1b1b;}.cls-17{fill:#e7e7e7;}.cls-18{fill:#ddd;}.cls-19{fill:#e6e6e6;}.cls-20{fill:#101010;}.cls-21{fill:#ebebeb;}.cls-22{fill:#202020;}.cls-23{fill:#131313;}.cls-24{fill:#cacaca;}.cls-25{fill:#d7d7d7;}.cls-26{fill:#dbdbdb;}.cls-27{fill:#161616;}.cls-28{fill:#dfdfdf;}.cls-29{fill:#e4e4e4;}.cls-30{fill:#d8d8d8;}.cls-31{fill:#d6d6d6;}.cls-32{fill:#dedede;}.cls-33{fill:#3b3b3b;}.cls-34{fill:#d2d2d2;}.cls-35{fill:#cfcfcf;}.cls-36{fill:#d9d9d9;}.cls-37{fill:#e2e2e2;}.cls-38{fill:#e1e1e1;}.cls-39{fill:#282828;}.cls-40{fill:#dcdcdc;}.cls-41{fill:#e3e3e3;}.cls-42{fill:#cecece;}.cls-43{fill:#e9e9e9;}.cls-44{fill:#fdfdfd;}.cls-45{fill:#bcbcbc;}.cls-46{fill:#545454;}.cls-47{fill:#262626;}.cls-48{fill:#cbcbcb;}.cls-49{fill:#b5b5b5;}.cls-50{fill:#cdcdcd;}.cls-51{fill:#242424;}.cls-52{fill:#0a0a0a;}.cls-53{fill:#1c1c1c;}.cls-54{fill:#c2c2c2;}.cls-55{fill:#a7a7a7;}.cls-56{fill:#fbfbfb;}.cls-57{fill:#222;}.cls-58{fill:#fcfcfc;}.cls-59{fill:#b2b2b2;}.cls-60{fill:#e0e0e0;}.cls-61{fill:#3e3e3e;}.cls-62{fill:#c9c9c9;}.cls-63{fill:#2b2b2b;}.cls-64{fill:#c6c6c6;}.cls-65{fill:#0b0b0b;}.cls-66{fill:#505050;}.cls-67{fill:#020202;}.cls-68{fill:#ccc;}</style></defs><title>tree</title><path d="M.48,477.36v-1.44a12.87,12.87,0,0,0,1.3-1.48c1.34-2.11,3-3.69,5.67-3.84.12,0,.23-.19.34-.29l-.18-1.9c1.22.15,2.22.34,3.24.37,1.44,0,2-.84,1.43-2.16a12.84,12.84,0,0,0-.9-1.49,25,25,0,0,0,2.43-2,2,2,0,0,1,2.77-.19c.43-.6.7-1.37,1-1.4,2.22-.23,3.13-2,4.3-3.44l1.11,1c2,0,2.35-.26,3.57-2.1a1.9,1.9,0,0,1,.73-.48,4.47,4.47,0,0,1,3.41-.58,1.74,1.74,0,0,0,2.46-1.15c.66-.53.52-1.05,0-1.57a2.33,2.33,0,0,0-.06-.35,28.82,28.82,0,0,1,2.83.81c2,.81,2.06.95,1,3.06a10,10,0,0,1-2.69.65,1.88,1.88,0,0,0-2,1.33l4.4,1.49.47-2.55h1.77c.44-.38,1.25-.75,1.26-1.14,0-1.8,1.44-2.28,2.6-3s2.22-1.1,3.34-1.64c1.06-.16,2.39.32,3.06-1.37l-4,.49a3.41,3.41,0,0,1-.61-3.82c2.49,1.7,4.55.68,6.78-.87-.36-.26-.79-.39-.86-.63-.45-1.54-2.71-2.5-1.46-4.57-.79-1.25-.46-2.47,0-3.74.12-.35-.28-.88-.43-1.34s-.37-1.14-.57-1.75c2-.88,4.12-1.45,4.68-3.82-.79-1-2-1.93-2.24-3.06a4,4,0,0,0-2.09-2.58,19.39,19.39,0,0,1-1.7-1.31A2,2,0,0,1,49,422.9c1.35.36,2-.34,1.72-1.68a9.82,9.82,0,0,0-1.35-2.71,9.28,9.28,0,0,0-1.26-1.36l3.74-1.76L50.2,414l.17-.45h7.06l.34,1.22a4,4,0,0,0,2.66-3.1l-2.9.44.61-3.25c1.06-.3.63.89,1.19,1.18l2.26-1,1.46,1.59c1.36-.45.72-1,.24-1.56-.1-.12-.07-.36-.11-.6l1.39.54c1.89-.92,1.82-2.68,2-4.33a2.83,2.83,0,0,0-3.51.07,25,25,0,0,1-2.89,1.5s0,.6-.14.64c-1.11.3-2.25.5-3.38.73-.14-.18-.26-.48-.43-.51-2.1-.38-3.24-1.88-4.28-3.54a13.84,13.84,0,0,0-1.8-2.23c-.26-.27-.78-.28-1.18-.41l-1,3.7-1.23-.14.34,2.92-2.27.88,0,.32,2.71-.24-3.75,3.28-2.94-1.6c.51-.67.91-1.16,1.28-1.67a3.87,3.87,0,0,0,.52-4.44c-.53-1-.41-2.41-.66-4.21l2.63,2.15,3.78-2.76c-1.68-.81-2.85-2.78-5.37-1.57.75-2.23,1.4-4.16,2-6,.9.34,1.58.84,2.22.78a9.89,9.89,0,0,0,2.46-.84l7.63,2.9c.42-.58.52-1.6,1.54-.79l-.76,2,.37.26,2.85-2.62,1.74.58.33-2,1.63-.6c.15-1,.23-1.76.4-2.53a3,3,0,0,0-.61-2.92,5.18,5.18,0,0,1-1.25-4,1.62,1.62,0,0,0-.94-1.79l-1.14,2.06-2.45-4.51,4.5.76c.57-3.15.52-3.24-2.09-4.53-.5-.24-1-.52-1.54-.82l2.42-3.35c-3.9-1.05-4.17-1.44-3-4.26.71.27,1.45.51,2.15.83s1.44,1.19,2.31.11l-1.36-1.28,2.26-3,.87,1.53a12.94,12.94,0,0,1,1.91-1,11.39,11.39,0,0,1,2-.24c-.57-.88-1.39-1.71-1.23-2,1.18-2,0-4.21.82-6.18,0-.12.22-.17.48-.36l.78,1.43,2.41-1.47-.59-2.32,2.81-.63-1.87-2,4.48-9.63,1.52.22c.45-.84.47-1.59-.44-1.83-1.85-.5-2.57-1.95-3.36-3.4,2.07-1.75,2-1.78,3.31-4.4a41.42,41.42,0,0,1,2.54-4.32c.24-.36.83-.48,1.42-.79-.33,2.25-.06,2.93,1,3.1.18-.42.35-.83.53-1.27,2.49,1.72,4.71-.2,5.26-4.09l-2.64-1.77c.86-1.39,2.62-1.89,2.38-3.41l-4-2.9c.63-1.13,1.09-2,1.56-2.83l-.86-1c1.21-1.52,2.33-2.93,3.44-4.35a2.09,2.09,0,0,1,3.08-.65,6.06,6.06,0,0,1,.62.37c1.47-.29,2.58-.79,3.6-.64a2.71,2.71,0,0,0,2.55-.89,24,24,0,0,0,2.08-2.31,1.9,1.9,0,0,1,2-.93c1.38.34,1.85-.44,2.16-1.58.23-.84.57-1.66.88-2.52-3.3-2.16-4.25-3.75-3.08-5.36l1.72-.59c0-.32.06-.55.07-.79,0-2.93,1.3-3.9,4.07-3.1.85.24,1.68.53,2.52.77,2.06.58,2.62.24,3-1.8a3.24,3.24,0,0,0,0-1.66c-.93-2.2.16-3.78,1.44-5.35a15.63,15.63,0,0,0,1.23-1.78c1-1.72,2.09-3.24,4.47-2.4-.18-3.2-.48-3.48-3.24-3.06a2.15,2.15,0,0,1-2.31-.88,2.23,2.23,0,0,1-.08-2.68c1.43-2.24,3.9-2.41,6.18-3.48l.11,2.45c1.22.3,2.25.53,3.26.81a1.21,1.21,0,0,0,1.61-.61c.65-1.26,1.27-2.53,1.82-3.62-.95-1.76-2.3-.72-3.45-.94l-2.33-4.08c1.91-2.81,2.59-6.47,1.44-8.95-1.31-2.81-.41-4.91,2.88-4.53,1.8.21,2.86-.67,3.31-2.46a14.47,14.47,0,0,0,.39-4.25,8.84,8.84,0,0,1,2.92-7.29,2.33,2.33,0,0,1,2.67-.79,5.92,5.92,0,0,1,4.12-3.8c2.29-.74,2.83-1.77,2.19-4.09-.24-.86-1.07-1.6-.71-2.74,1.69.4,3.41,2.4,4.88,0,1.25-2.05-.58-3-1.75-4,.87-2.34,1.23-4.81,3.33-6.67-3.26-1.22-3.38-3.66-3.38-6.43,1.66.73,2.11-.62,2.78-1.51,2.29,1.65,2.29,1.65,2,3.31l-.39.44c-1.1.62-1,1.51-.63,2.74l1.16-.86.93-1.68c.53.34,1.06.66,1.58,1,1.07.72,1.76.22,2.48-.84l-2.08-2.29c2.54-1.79,6.53-2.1,5.88-6.46a4.18,4.18,0,0,1,4,.75c1.82,1.55,3.94,1.5,5.94,1.5a13.18,13.18,0,0,1,1.75-2.66c1.66-1.51,1.64-3.18.82-5-.35-.78-.82-1.52-1.27-2.35,1.55-1,3.23-.53,4.86-.4,1,.08,2,.41,2.67-.5s1.55-.92,2.52-.77,1.9.26,2.86.32c1.13.07,2.21.06,3-1.06.63-.92,1.62-.85,2.61-.73,2.15.26,4.29.45,6.44.67l19.7,2c.05,1.39.7,2.17,2.21,2.09,2.3-.13,3.4-1.15,4.25-4.17l-1.5-1.26,5.53-1.38c.47-1.5,1-3.11,1.49-4.7s1.08-3.17,1.7-5l2.22,2.79c1.26-.52,1.58-2.46,3.44-1.57a2.15,2.15,0,0,0,1,3.22,3.81,3.81,0,0,0,2.76.14,16.53,16.53,0,0,0,3.16-2.08l1.82.92L242.13,180c.21.38.38.65.52.94.89,1.74,1.25,4.27,4.27,2.87,1.38,1.13,2.9.09,4.35.22a4.36,4.36,0,0,0,4-1.78c.17-.24.39-.58.63-.62,1.85-.34,2.6-2,3.89-3.06l-2.68-1.49c1.72-4.15,1.72-4.15,3.12-4.25a2.57,2.57,0,0,1-.06.69c-.69,2.19-.23,3,2,3.14,1.66.11,3.32,0,5,0l1.68-4.1.52-1.48h2.19l.92-3.16c.92.57,1.61,1,2.32,1.42a10.14,10.14,0,0,0,2,1,33,33,0,0,0,3.39.63,2.84,2.84,0,0,1,1.89-3c.94.57,1.21,2.08,2.8,1.63l-1.15-2.17.32-.24,1.85,1.35c.26-.51.46-.93.67-1.34,1.87.83,3.61-1,5.57,0-.92-2.05-2-2.46-3.55-1.56-.67.38-1.33.78-2,1.17l-3.3-4,.72-1.21c2.77,1.83,2.83,1.83,4.15.47l-3.33-3.48c.7-.46,1.39-1.24,1.78-1.11a14.21,14.21,0,0,1,2.82,1.69c.48-1.09,1-2.17,1.43-3.28.32-.81.82-1.53,1.7-1.42,1.25.16,2.72-.15,3.55,1.33a6.38,6.38,0,0,0,1.38,1.3c1-.62,1.71-1.11,1.72-2.43,0-.65.94-1.29,1.65-2.19l.91,1.52,3-.92c-.51,2.11.43,3,1.8,3.73,1.53.79,2.66-.68,4.35-.73a15.21,15.21,0,0,1,.93,3c.13,1.28.69,1.82,1.67,1.93a7.15,7.15,0,0,1,1.25-1.46,22,22,0,0,1,2.57-1.28,3.47,3.47,0,0,0,2.36-2.41c.39-1.57,2.46-2.39,4.23-2,.85,2.65.85,2.65,3.59,2.57a11.55,11.55,0,0,1,1.44,0c.12,0,.22.18.35.29l-.71,1.06c2.57,1.8,2.88,1.79,5.06,0a6.7,6.7,0,0,0,.89-.79,3,3,0,0,1,3.37-1.14,3.13,3.13,0,0,0,3.34-1.19c-.58-1.73-1.83-1.09-2.9-.8-.36-2.54.53-4.61,2.13-5.21l1.36,2.06,3.13-3.7c.31.75.48,1.18.65,1.62.55.64,1.08,1.3,1.65,1.93s.95,1.35,1.5,1.41,1.34-.55,1.87-.8c.83.41,1.57,1.07,2.32,1.08a2.92,2.92,0,0,1,2.65,1.78l-1.06,1.21-1.67-1.58c-1.13,1.17-1.41,2.35-.63,3.48-.26,1-1.45,1.29-1.21,2.71l2.56-1.89a10.53,10.53,0,0,0,1,1.91c.48.57,1.1,1.38,1.71,1.43a11.94,11.94,0,0,0,8.13-1.88c.16-.12.19-.4.27-.57l-1.86-.54c1.53-1.05,3-.42,4.18.1,1.54.67,3.4,1,4.33,2.74a3.85,3.85,0,0,0,.48,0l3-.72a3,3,0,0,1,3.74,2.56c0,.31-.17.67-.08.94.15.48.41,1.25.71,1.29a2.13,2.13,0,0,0,1.59-.57,7.48,7.48,0,0,0,1-1.88c.53-1,1.26-1.6,2.27-1.22.45,3,.88,5.76,1.29,8.46,3.09.1,5-1.7,7.25-2.86-.66-1-1.28-1.88-1.84-2.72.79-1.8,2-.83,3.06-.57l.74-1.86,1-1c3.91-.75,4.6-.51,6.18,2.08s1.17,3.91-1.49,5.47a8.6,8.6,0,0,0,.32,2,10.23,10.23,0,0,0,1.16,1.78l-1,1.39c1.13,1.8,2.19,3.57,4.66,3.1l.69,2.46V181l-1.78.73c1.22.78,1.62,2.11,3.46,1.88-.22-.86-.42-1.62-.62-2.38a3.76,3.76,0,0,0,3.42-2.17c.7-1.15-.11-1.77-.65-2.54l3.05-1c0-1.23-.05-2.13,0-3s.22-1.89.34-2.84c.51,0,.5,1.58,1.4.49l3.94-2.32c.06,1.45.65,2,1.83,2,.44,0,.9.46,1.32.77s.91.76,1.43,1.21a4.66,4.66,0,0,1,4.63-2.28c-.21-.71-.21-1.46-.56-1.72a32,32,0,0,0-3.35-1.95c2.46-1,3.34-.78,4.6,1a10.24,10.24,0,0,0,1.92,1.64l1.26-2c1.29.74,2,1.58,1.63,3l-2.45.48c1.38,1.7,2.73.13,4,.51,1.5,1.11,3.05,2.16,4.46,3.37.34.29.31,1.12.29,1.7a9,9,0,0,1-.48,1.74L442.9,176c1.53,2,1.3,4.19.5,6.78,2-.56,3.47-.94,4.94-1.41,1.22-.39,1.91-.14,2,1.15a12.78,12.78,0,0,1-.31,2.8c-.08.63-.19,1.26-.3,2,.51-.14.74-.13.79-.23a3.18,3.18,0,0,1,3.55-1.74,2.8,2.8,0,0,0,2-.95,1.9,1.9,0,0,1,2.3-.62c-.06,2.7.67,5.41-1.6,7.34.19.39.22.58.33.67a3.13,3.13,0,0,0,.8.49c3.12,1.21,3.78.93,4.91-2.05,1.54,1.47,1.67,1.66.52,3.11a8,8,0,0,0-1.76,5.57,7.43,7.43,0,0,1-.15,1.09l-1.86-.8-.61,1.41c1.87,1.17,4.13,1.46,5.73,3.06a15.16,15.16,0,0,0-.92,2.22c-.23,1,.53,1.86,1.24,1.46,1.81-1,2.75.15,3.92,1.11l-1.45,2.37,17.19,4c-.89-1.94-3-2.21-3.36-4a3.31,3.31,0,0,1,3.86-.48c1.81.79,3.66,1.48,5.55,2.23,1-2.59-1.9-1.77-2.43-3.18,1.28-.27,2.42-.56,3.58-.72a1.54,1.54,0,0,1,1.28.38c.72,1.14,1.6,2.34,1.22,3.77a35.77,35.77,0,0,1-1.78,5.13c-.91,2.08-.86,2.29,1.61,2.94,2-3,2.37-3.17,5.34-2.53.12.68.24,1.36.38,2.11l1.39-.19c.64,1.38,1.2,2.56,1.79,3.82l2.72-1.76c.48,1.66.87,3.12,1.34,4.56a1.09,1.09,0,0,1-.65,1.53c-.12.06-.08.43-.14.78l1.73.11c.18-1.2.33-2.28.52-3.61l6.61.69c-1,2.36-2.85,1.95-4.66,1.93.13.7.22,1.22.32,1.77a11.86,11.86,0,0,1,2.25.18,10.17,10.17,0,0,1,1.83,1l1-1.82,5.06,3,3-2.23,2.32.85c-.31.7-.56,1.2-.75,1.71a2.42,2.42,0,0,0,1.28,3.37c1.24.52,1.72.23,2.56-1.53,1.21-2.52,3.11-3.22,5.84-2.28a3.33,3.33,0,0,0,2,0,8.32,8.32,0,0,0,2-1.21c1.52-1,1.65-1,3.13.71l-2.44,1.1.27,1.37-1.78.81c1,2.55,3,3.74,5.19,4.61.2.76.37,1.42.62,2.35a15.09,15.09,0,0,0,1.38-1.22c1.27-1.46,3.5-1.83,5.68-.41a1.85,1.85,0,0,1,.77,1.49c-.42,1.4.39,2.07,1.17,2.77l2.4-.15c.78,3-1.87,2.78-3.46,3.72.55.44.89,1,1.27,1a26.74,26.74,0,0,0,3.14-.16c.41.89.85,1.82,1.27,2.71,2.5.32,3.66,2.13,3.92,6.18l-2.82-.22c.48.85.64,1.58,1.08,1.83,1.8,1.06,2.2,2.78,2.62,4.69-2,.66-3.83,1.27-5.7,1.88.8,1.77,2,2,3.62,2,3.33,0,6.54.62,8.71,3.6a2.35,2.35,0,0,0,.67.53l3.44-1.07c-.31,1.59-.56,2.8-.75,3.77l2.38,2.33c-1.06.49-2.33.66-2.69,1.32a7.28,7.28,0,0,1-5.19,3.63l-.45.14c-.69-.38-1.23-1.42-2.26-.51,0,.22-.11.49,0,.67.78,1.64,1,3.15-.6,4.53-.25.21-.06,1.15.15,1.65s.7.79,1.19,1.29a6.87,6.87,0,0,0-3.44,5.58,2,2,0,0,1-1.57,1.9,5,5,0,0,0-1.62,1c-.75.58-1.77,1.23-1.22,2.31s.39,3.08,2.69,2.57l1.45-1.81,2.44.12,0,.28-1.57.61,1.83,2.46-2.08,1.69c.6.5,1.21,1,1.8,1.51a5.05,5.05,0,0,1,1,1c.66,1,1.16,2.06,1.9,3a4.54,4.54,0,0,1,1.1,3.3c0,.72-.5,1.62.54,2.16,2.48-1.51,4.71,0,7,.37l.1.62-3.41,1.38c.72,1.23,1.78,2.34,1.05,4-.1.22.51.9.93,1.19a6.72,6.72,0,0,0,1.63.58c-.3,1.36-.58,2.65-.94,4.27h7.74c-1.11,2.06-2,3.71-3,5.6-1.37-1.4-1.78.26-2.53.69-1.82-1.41-1.82-1.41-2.94.21,1.63,2,1.83,4.09,0,6.24a2.81,2.81,0,0,0,.07,3.58c.35.52.74,1,1.11,1.49-2.42,2.83-2.43,2.83-2.81,4.7-.15.78-.18,1.59-.33,2.37-.34,1.72-.68,3.43-2.13,4.69-3.22,2.8-3.45,4.12-1.41,8.5l2.48-2.17,1.08-.92,2.09,1.4-.21.4h-1.41a12.64,12.64,0,0,1,1,3.47,13.09,13.09,0,0,1-1.05,3.48c.64.67,1.63.67,1.82,0,.67-2.35,3-2.66,4.39-4.17a13.9,13.9,0,0,1,2.22,1.14c1.73,1.31,2.87,1.32,4.47-.05a17.61,17.61,0,0,1,1.9-1.23c.32,1.06.56,1.82.84,2.71l-2.67.18c.14.74.27,1.41.4,2.05l-2,.74c.34,1.84.45,3.73,2.1,4.74a3.66,3.66,0,0,1,2,3.91c2.48-1.9,5.19-1.87,7.31-.07.65.55,1.31,1.3.62,2-1.39,1.44-.25,2.42.27,3.63a2.7,2.7,0,0,1,.77-.16c.56,0,1.42,0,1.62.29a2.23,2.23,0,0,1-.13,1.7,5.3,5.3,0,0,1-.89,1.29l-3.12.15c.44,2.89,2.6,1.86,4,2.26.23,1.24.44,2.4.66,3.62l1.81.29c.38,2.54.75,5,1.12,7.47l-3.5-.74c.95,3.09,3.34,5.35,2.17,8.37l-6,1.08c.95,2.58.95,2.58,3.07,3.13l.69.18c3.52.92,6.77,2.17,7.55,6.38l3.85-.44-1.62,4,2.27,4.11c-2.33-.55-3.71-.1-4.73,1.62-.73,1.22-2.24,1.33-3.58,1.65a2.8,2.8,0,0,1-2.43-.52c-.64-.42-1.33-.66-1.72.34,1.43,2.78,1.41,2.83-.84,5.12a15,15,0,0,0-1.1,1.45c.49.92.91,1.69,1.44,2.66-2.67.66-3.94,2.58-4.64,5a2.56,2.56,0,0,1-.76,1.21c-1,.81-2,1.56-3,2.27-1.3.89-2.58,1.69-1.63,3.62.21.43,0,1.07-.08,1.68l1.89,1.17c.59-.72,1.06-1.35,1.59-1.93.89-1,1.73-.41,2.52.17.14.11.15.38.23.6l-1.56.38c1,3.19,1,3.19-1.48,4.75.41.7.81,1.41,1.23,2.12.74,1.22,1.91,2.36,2.1,3.66a2.35,2.35,0,0,0,2,2.26c.11,0,.17.23.29.41l-.76,1.49,1.72,1.83c.44-.87.82-1.6,1.2-2.37.46.12,1.33-.32,1.23.81l1.33,1.08c-.7.3-1.41.57-2.08.92-.3.15-.75.52-.71.68.11.4.47,1,.7,1,1.77-.06,1.78,1.39,2.49,2.58l-3.73,1.14c1.39,1.45,2.75,2.48,5,2v6.85c1.42,1.42,2.18-.73,3.52-.76l.31,1.82,2,1.24L607,495.59a15.17,15.17,0,0,0,2.3,0c.93-.17,1.25.46,1.66,1,0,.45.09.89.15,1.43l-2.1-.92-.32.49,2.34,2,.33,1.37,1.22,1.15c-.61,1-1.6,1.72-1.24,3.15.09.35-.78,1.3-1.3,1.38a8.23,8.23,0,0,1-3.53-.19c-.58-.18-.9-1.2-1.34-1.85-.17-.25-.36-.5-.58-.81l-2.7-.14c-1.33,2.61-1.25,3.69.32,5.33l2.07-.95c.27,1.47,0,3.08,1.94,3.33a3.79,3.79,0,0,1,3.13,2.82c-2.45,1.33-2.45,1.33-2.86,3.69-1.3.38-2.48.45-3.14-1.11l-.51-1-.37.12v4.71h-6.67c0,.51.06.89.1,1.39-.71.16-1.39.34-2.09.47a6.87,6.87,0,0,1-1.43.14,2.6,2.6,0,0,1-2.74-2.45,13.57,13.57,0,0,1,.23-2.42l1.14.81c-.09-1.15-.17-2.08-.25-3a9.62,9.62,0,0,1-1.34-.23c-2.32-.7-2.77-2.15-1.28-4.07.57-.74,1.17-1.45,1.67-2.06a4.69,4.69,0,0,0-4.95-2.64l1.49-2.63H581c-1.27-2.86-1.27-2.86-3.93-3.9-1.46.58-1.31,2.61-3,3.16-1.93.6-2.79-.54-3.8-1.56-1.52.75-1.52.75-1.9-1.17-.23-1-.53-2-2.12-1.26l1.25,1.73-1,1-1.44,1c-1.58,1.61-2.49,1.75-4.64.75l2.24-.84c-.47-1.13-.85-2.08-1.28-3.11l3.93-1.54a9.68,9.68,0,0,0-11.35-.47c0,.51.28,1.15.07,1.51-.79,1.35-.57,2.76-.51,4.18l-2.36.48a.49.49,0,0,1,0-.44c0-1-.74-.94-1.43-1s-1.59-.27-2.39-.41c.25-.92-.21-1.24-1-1-1.7.57-3.36,1.24-5.43,2l1.6.95-1.92.84a16.69,16.69,0,0,0-2,2.93,3.62,3.62,0,0,0,0,2.67c.48,1,1.52.95,2.4.2l2-.52c.32-.84.64-1.67,1-2.51l.51-.05c.79,2.7.41,5.94,3.25,7.78.16-.86.3-1.64.45-2.42.27.86.54,1.72.85,2.69l1.73.85c.08.43.16.86.27,1.49l-3.46-1.22-.28.57,5.14,3.76c-2,.85-3.72-.25-5,0l-3.42-3.69,1.55-1.37c-.75-.2-1.33-.57-1.77-.43a8.75,8.75,0,0,1-4.94.22.9.9,0,0,0-1.09,1.3c1.12,2.09.49,3.63-1.14,5.06a5.78,5.78,0,0,0-.84,1.4l-6.28-1.4c-.1-1.4-.19-2.54-.28-3.82l3.38-1.24c-2.25-1.3-4.25-1.75-6.56-.84a17.82,17.82,0,0,1-5,1.37,35,35,0,0,1-6.2-.42c-3.77-.4-7.52-1.6-11.25.33a3.07,3.07,0,0,1-3.58-.54,2.37,2.37,0,0,0-2.86-.37c.66,2,1.29,4,2,6,.27.73,1,1.37,1,2.09a6.58,6.58,0,0,1-.74,2.29A5.93,5.93,0,0,1,503,526c.59,0,1.25-.1,1.31.54a6.36,6.36,0,0,1-.43,2c-1.52-.55-1.38,1.58-2.67,1.58a2.54,2.54,0,0,1-.58-.17,30.19,30.19,0,0,1-7-5.61c-2.21-2.25-4.5-4.51-7.54-5.36a23.41,23.41,0,0,1-5.71-2.33l-1.54,1.68a7.3,7.3,0,0,0-6.41-.48c.08.3.15.59.18.7l-4.05,1.68c-2.21-.53-2.21-.53-3-1.85l2.66-1.5-3.35-4.74,1.41-1.85-6.09.82v1.59c-.18,0-.27,0-.34,0-2.88-1.32-5.68-2.95-9.09-1.76a4.47,4.47,0,0,1-2.09-.26,1.35,1.35,0,0,0-1.73.9c.13.3.22.6.37.88a2.72,2.72,0,0,1-.74,3.81,10.84,10.84,0,0,0-1.47,1.88l-6.26-1.59c-.09-1.16-.18-2.31-.26-3.41l3.13-1.27c-2.38-1.4-4-1.76-5.78-.92-3.57,1.7-7.24,1.67-11,1.15-3.38-.48-6.75-1.05-10.19-.09a31.9,31.9,0,0,1-5.12.6,10.26,10.26,0,0,1-1,2.46,1.91,1.91,0,0,0,.23,2.93,6,6,0,0,1,.69,1.11l-4.72,2.29a23.31,23.31,0,0,0-2.5-2.83c-1.84-1.51-3.79-2.9-5.77-4.22a2.7,2.7,0,0,0-2-.25,29.65,29.65,0,0,1-12.33.56c-1.8-.34-3.59-.79-5.4-1.09-6.61-1.12-13.12-2.89-19.91-2.81a45.38,45.38,0,0,1-6.68-.56A11.61,11.61,0,0,0,337.77,518a59.2,59.2,0,0,1-7.29,15,75.47,75.47,0,0,0-9.5,19.29,13.92,13.92,0,0,0-.73,6.84,9.21,9.21,0,0,1-.65,5.1,18.91,18.91,0,0,0-1.1,8.72,40.81,40.81,0,0,0,3.26,12c3.2,7.64,7.7,14.53,12.25,21.4a7.33,7.33,0,0,0,3.63,2.93c3.89,1.47,7.77,3,11.66,4.41,6.06,2.26,12.13,4.49,18.18,6.77,1,.39,2,1,3.3,1.58l-21.12,5.36c-1.7.44-3.32.75-5.05-.2a5.87,5.87,0,0,0-3.27-.53c-2.93.3-5.84.81-8.75,1.27a7.48,7.48,0,0,0-1.43.55c.93,1.35,2.69,1.78,3,3.91-6.19-.41-11.55-3-17.35-4.64-.69,1.27-1.34,2.44-2,3.62-1.6,3-3.07,6.15-4.83,9.09-1.44,2.41-3.27,4.56-6.14,5.44L301,645.8c-1.64-3.93-2-8.16-2.73-12.62-4.09.14-8.14.3-12.19.41-5.43.16-10.85.28-16.28.45a5.63,5.63,0,0,1-3.5-1.17c-2.31-1.56-4.75-2.92-7.2-4.27a8,8,0,0,0-5.56-.75c-7,1.39-14,2.68-20.93,4a6.34,6.34,0,0,0-1.26.55c-1.23.12-2.45.28-3.67.34-.79,0-1.68.64-2.37-.27l-.08.07,1.67-1.6,1.57-1.42,1.89-1.46,4.35-3.39,2.64-1.82,1.68-1.52,2-1.33,0,0,1.94-1.49,0,0,3.86-2.92,0,0,2.49-1.9,0,0,1.94-1.48,0,0,1.92-1.51,0,0,2.47-1.91,0,0,1.79-1.59.51-.46,1.87-1.46.53-.48a4.33,4.33,0,0,0,2.84-2.88c.5-.95,1-1.91,1.48-2.86a22.12,22.12,0,0,0,3.89-8.19c.51-1.48,1.05-2.94,1.51-4.44.8-2.63,1.55-5.28,2.32-7.93.24-1.22.58-2.44.7-3.68.42-4.49.59-9-.69-13.38l-1-3.68-.84-2.52,0,.06-1.09-2.28c-1-1-.75-2,0-3l1.44-2.36.47-1.92,0-5.76.12-.14-.09-.17c.13-2,.27-3.95.4-5.92l.06-3.09q.14-6.52.26-13.06c0-.13-.15-.27-.24-.4-.32-.89-.65-1.77-1-2.66l-1.47-1.92-.94-1.92c-.72-3.15-2.16-5.77-5.29-7.14l-5.89-2.94-4.68-2.36L252,498c-.41-1.76-2-2.23-3.32-3l0,0-2.48-1.36-2.39-1.46-3.37-1.88-2-1L235.2,488l-2.53-1.47L229,484l0,0-2.49-1.43c-1.43-.46-3.35-.5-4.2-1.48a13.68,13.68,0,0,0-4.09-2.8l-3.63-1.59.06,0-3.48-1.28L209.8,475l-2.45-1-2.45-.44a2.13,2.13,0,0,0-2.82,0h0c-1.36,1.41-1.32,1.35-2.82.37a22.35,22.35,0,0,0-2.93-1.36h0a3,3,0,0,0-3,0l-1.8.56-3,.38c-.94.63-.24,1.06.23,1.4a14.18,14.18,0,0,0,1.81,1c-1.46,1-1.85,2.2-.75,3.87-1.78.09-3.48.79-4.37-1.32l0,.05,1.56-1.85c-1.46,0-2.94-.88-3.76.73-1.08.56-1.62-.2-2.19-.9l-.84-1.31,2.85-.54,0,0c.15-.34.51-.74.43-1-.64-2.13-2.46-2.58-4.34-2.9l-1.91-1a14.47,14.47,0,0,1-1.44-1.79,4,4,0,0,0-4-2.06q-3.36.19-6.7.48a5.06,5.06,0,0,0-1.31.48h0c-1.18.66-1.18.66.08,2.75l.54-1.17,0,0c1.07-.55,1.88.12,2.73.57l.46.26,2.94,2.94a5.56,5.56,0,0,1-1,.78c-1.1.5-2.24.92-3.36,1.38a1.51,1.51,0,0,0-.3,2.1c.65,1.18-.12,1.7-.84,2.3l-1.68,1-2.83.71-1-4.42-3.09.3-2.67-.94c-1.14-.67-.86-1.84-1-2.86-.72-1.44-1-1.45-2.48-.08l0,0a5.72,5.72,0,0,0-2.38,1.93l2.37,1.31.4.76c.13.61.9,1.18.12,1.86h0l-2.89,2.23a14.61,14.61,0,0,1-2.21-.32c-.27-.07-.41-.61-.61-.94l.92-1,1.45-1.18-.18-.46-2.72-.3L144,473l-1.48.11-7.7,2.33-5.73,1.95-3.54.88-.18-.05-.12.14c-2,.13-4,.25-6,.42-.91.08-1.82.27-2.72.42l.06,0-5.87,2a22.66,22.66,0,0,1-8,1,2.86,2.86,0,0,0-1,.31l-2,1.56c0,.93,1,1.71,0,2.46l0,0c-.93-.32-2.23-.37-2.7-1-.9-1.23-1.66-.75-2.58-.34h0l-3.36.46c-1.6-.22-3.22-1.27-4.79.08l-3,.88-1.3.59c-1.19.22-1.28-1-1.91-1.49l-1.51-1.93c-1-1.06-1.93-.88-2.91,0l-.93.76c-1.23.74-2.8.34-4,1.19-.14.09-.44-.06-.67-.09l.05,0c-2.38-1-4.48-.19-6.53,1l-1.79,1.33-1.49,2.06-1,.48c-1.68-.42-3.43-1.21-4.51,1l-1.05-.46-1.47-1c-1-.91-1.95-.59-2.95-.08l0,0-5.88,2.44-3.24.87-3.47.77-1.36,1.72,0,0-4,1.46-.94.32,1.76.61-.62.93a5.08,5.08,0,0,0-1.09.48,4.06,4.06,0,0,1-5.22.09,18.08,18.08,0,0,0-2.67-1.35L18.74,500a1.9,1.9,0,0,0,2.44.65,12.78,12.78,0,0,1,2.26-.49l.39.34c.19.6.77,1.21,0,1.8A2,2,0,0,1,22,504l-3.29.23a2.27,2.27,0,0,0-2.86.16c-.95,1-1.73.9-2.89.37a2.41,2.41,0,0,0-3.17.73,18.37,18.37,0,0,1-1.23,1.44,1.38,1.38,0,0,1-1.85.26l-1,0-1.18-.65,2.27-1.43-.25-.39H5.76a1.71,1.71,0,0,1-1.87-1.15c.61-1.55.61-1.55-1-2.24-.73-1.17.61-1.24,1-1.84A16.85,16.85,0,0,0,6.08,499c.42-.15.31-.47-.33-.92l-2.08-.92L5.76,496l2.2-.3.41-2.1,2.11,1.86c.77-1.54.77-1.54-.4-2.74a15.29,15.29,0,0,0-1.36-2.06c-.79-.87-.32-1.32.4-1.77A17,17,0,0,0,11.68,487c.65-.67.65-1.53-.72-2.16-.5,1.62-1.47,2.61-3.25,2l0,0c-.65-1.71-.37-2.77,1-3.71v0l5.56-.81C14,480,12.13,479,8.83,479.62l1.49,1.9-2.64.62-2.4-.48c-1,.33-1.93,1.13-2.88,0L2,480.73l1.3-2ZM568.75,356.89c-.21-.3-.41-.6-.62-.89l-.47.22c.2.64.39,1.28.59,1.92,0,.57,0,1.13,1.14.85C569.17,358.28,569,357.58,568.75,356.89ZM233.31,464.45l-1.55,1.18c.71.37,1.67-.41,1.56.79l.81-.17c.65-.58,1.17-1.2.66-2.26Zm44.57,15.85,1-1c-.05-.29,0-.67-.16-.87-.7-.82-3.69-1.42-4.56-.89a1.14,1.14,0,0,0-.49.93,5.59,5.59,0,0,0,.84,1.33c.19.91.46,1.74,1.67,1.54C276.89,481.21,277.92,481.65,277.88,480.3Zm51.87,15.37c.14.62-.87,1.6.57,1.81.53.07.81.35.23.66-1.68.91-3.41,1.73-5.12,2.59-1.43.72-1.55,1.21-1,2.65.59,1.6,1.81,2,3.36,2-1.43,3.79-1.4,4.1.67,5.12,1.08-2.57,3.51-4.51,3.33-7.69a4.85,4.85,0,0,1,.63-1.71c.95.59,1.8,1.52,2.7.63,1.41-1.4,2.61-3,4-4.48.67-.73,0-1.29,0-1.95,0-.33.31-.71.5-1.05.38-.69.77-1.37,1.15-2-2.64-1.72-2.71-1.94-1.29-4.87l3.44,2.7.4-.33c-.13-.53-.25-1.06-.4-1.66l3.28-1.09c-1.22-3.88-4.39-3.24-7.1-3.37l-.67-1.7L335.55,483q.66,1,1.11,1.74c-.61,1.82-2.11.7-3.22,1.1l-.31,2.09-1.93-.14c1.53-2.52-.23-4.49-1-6.91l3.32,1,.44.43a14.4,14.4,0,0,1,1.37-2,17.07,17.07,0,0,1,2-1.54c-1.19-2.18-3.09-2.19-6.9,0l-1-1c-1.9.31-2.63,1.64-2.92,3.43a4,4,0,0,0-4.33.47,1.82,1.82,0,0,0-.13,3c.42.33.91.58,1.48.95-.73,1.49-.07,3.64-2.56,4,.28,2.33-.23,4.75,1.15,7.05l.91-2.37,5.74-.42c-.24.91-.38,1.48-.55,2.11ZM568.48,344.49a8.31,8.31,0,0,0,1.41,0c.9-.16,1.48-.66,1.25-1.65a1.7,1.7,0,0,0-2.27-1.11c-.5.33-.71,1.09-1,1.65-.31,1-.62,1.95-.92,2.93-.13.76,0,1.74-.45,2.24-1.16,1.34-.31,2.37.26,3.46a1,1,0,0,0,1.77.3c1-.94,1.92-2,3.15-3.27-2.18-.43-3.55-1.26-3.82-3.2ZM217.42,464.37c.63,1.1,1.44,1.28,2.86.41l-3.33-1.3a4.79,4.79,0,0,0-5.41,1c1.9-.43,2.75.46,3.49,1.71a1.23,1.23,0,0,0,2.15.24l-.9-1.24ZM98.36,478.19c-1.67.5-3.59-.5-5.33.76.45,1.07.84,2,1.25,2.93a9.36,9.36,0,0,0,4.16-3l1.34-.89c2,1.08,2.42.94,4.71-1.45C102.57,475.54,100.37,476.14,98.36,478.19Zm149.27-3.36a6.7,6.7,0,0,1-2.4.59c-1.63-.26-2.57.61-4,1.67l4.08.84c1.1-.63.62-2,1.89-2,.5,1,1.41,1.65,2.11.54,1.08-1.72,2.46-1.64,4.07-1.34,1,.19,2.07.23,2.48-1.09a11.66,11.66,0,0,1,5.69-.43l-2,1.23,1.76,4.9c-1,.23-2.25.11-2.06,1.21l3.12,2.36a13.09,13.09,0,0,1,3-1.59,16.7,16.7,0,0,1,3.91-.07L267.13,478c1.07-1.14,2.14-2.26,3.2-3.41a1.83,1.83,0,0,0,.44-.79c.28-1.45,1.43-1.87,2.62-2a27.23,27.23,0,0,1,3.65,0,8.2,8.2,0,0,0-1.2-2.16c-1.67-1.59-3.45-3.06-5.21-4.54a2.76,2.76,0,0,0-1.44-.77c-1.87,0-3.27-1.11-4.87-1.76-.47-.19-1-.28-1.68-.48.29,1.11.49,1.93.69,2.69l-2.81,2c.91,1.74,2.05.1,3,.76l.37,3.38c-.91-.23-1.53-.33-2.1-.53a1.68,1.68,0,0,0-2,.42,4.38,4.38,0,0,1-3.42,1.44c-.38,0-.77.46-1.15.7a1.88,1.88,0,0,1-2.69.49C250.39,472.19,248.91,473,247.63,474.83Zm342.31-33.94a9.76,9.76,0,0,1-1.35,2.54c-.92.92-.61,1.7-.14,2.55.55,1,1.39.85,2.24.44l2.72-1.33-1.3-1c-.38-.28-.75-.57-1.12-.86-.1-.74-.19-1.49-.31-2.37,1.37-.13,2.68.31,3.46-1-.9-2.67-4.25-2.32-5.47-4.63-.95,2-.78,2.86,1.19,4.47C590.52,440.26,589.92,440.51,589.94,440.89ZM556.33,285l-1.73-.65c-.12,1.46-.12,1.46.82,2.16,2,1.5,2.1,2.19.53,4.41a1.29,1.29,0,0,0-.11.45c1.56,2.25,2.5,2.19,5.35-.49-1.53-.27-2.8-.82-3.22-2.49l3.14-1.48-2-1.5ZM458.36,510c.17.15.38.44.52.42,2-.41,4.05-.78,6-1.33.88-.24,1.06-1.07.69-2.09l-11-3.31c-.29,2.41-.12,4.46,1.9,5.92Zm67.54-5.85,1.2,1q1.64,2.42,3.29,4.82c1.24-.53,2.16-1,3.14-1.32a4.17,4.17,0,0,0,3.18-3.2,3.21,3.21,0,0,1,1-1.58c1.33-1.14,1.34-2.62,1.31-4.17a1.72,1.72,0,0,0-1.64-2c-1.22-.19-2.76-.14-3.56-.86-2-1.81-3.65-1.09-5.62,0l.87,1.72h-4.51l-4.91,3.52c.81,1.36,1.29,1.83,2.65,2A28.51,28.51,0,0,0,525.9,504.16ZM383,496.72l-9.66-.54c1.31,2.41-2,2.65-1.8,4.89L368,498c-.9.15-1.68.43-1.94,1.45a2.09,2.09,0,0,1-2.17,1.53c-.95.07-1.91.15-2.86.14a13,13,0,0,0-6.11,1.6,14.57,14.57,0,0,0,4,1.48c4.24.73,8.5,1.32,12.76,2,3.23.49,6.55.66,9.65,1.57,2,.6,3.28.45,4.45-1.16a1.08,1.08,0,0,0,.1-.41c-2.1-3.22-2.1-3.22-2-4.54C381.41,499.72,381.31,500.61,383,496.72Zm142.63,11.14a22.51,22.51,0,0,1-2,1.77,14,14,0,0,1-3.63,2.1c-.62.18-1.57-.82-2.37-1.27a3.76,3.76,0,0,0-.75-.14l-1,2.34c-2,1-2.74-.92-4.16-2,.3,1.26.51,2.14.73,3,1.58.27,3.08.44,4.54.78,1.73.42,3.18.25,4-1.44,2.43.66,5.87-.26,7.34-1.9l-2.76-.85ZM181.29,464.51c-1-.88-1.8-1.65-2.68-2.32a.8.8,0,0,0-1.29.91,4.27,4.27,0,0,0,.79,1.45,11.57,11.57,0,0,0,8.07,4.07,4.36,4.36,0,0,0,3.14-.88c-1.45-1.47-2.88-2.44-4.8-1.53-.59-1.16.18-2.64-1.36-3.35Zm253.35,38.83c-1,.8-1.84,1.4-2.61,2.07a4,4,0,0,1-3.25,1.17c-2.08-.25-3.78.66-5.69,1.93,1,.26,1.63.41,2.29.63,1.75.57,3.42.86,4.85-.73a1,1,0,0,1,.83-.3c2.69.56,4.86-1,7.28-1.52v-.52l-2.84-.5C435.24,504.91,435,504.32,434.64,503.34Zm113.76-9.49c.35-.13.45-.2.5-.17,2.07,1,3.6-.75,5.4-1.13.37-.09.56-1.07,1-2a23.94,23.94,0,0,0-9.8,3.4l2.64,1.73C548.26,494.93,548.33,494.4,548.4,493.85ZM271.62,492a5.52,5.52,0,0,0,1.76.76c1.34.05,3.83-2.09,3.95-3.39a2,2,0,0,0-.59-1.42,1.3,1.3,0,0,0-1.27,0C274.13,489,272.53,489.82,271.62,492Zm328.9,24.85a6.77,6.77,0,0,0,2.41-5.34c.05-.74,0-1.52-1-1.59a1.32,1.32,0,0,0-1.43,1.32,23.89,23.89,0,0,0,.15,3.09l-3,.18Zm-6.36-87.66a4.71,4.71,0,0,0-2.35,5.08c.18.95.48,2,1.71,1.92s1.1-1.14,1.31-1.95a1.14,1.14,0,0,0,0-.7c-.57-1.1-1.08-2.16-.16-3.36C594.81,430,594.37,429.5,594.16,429.14ZM160,201.71c1.67,1.37,1.38,3.07.88,4.85h3.83c.1-2.7-2-3.92-3-5.87ZM255.77,478l-3.1,1.68a1.94,1.94,0,0,0,1.64,2.2c.57.14,1,.85,1.54,1.34.73-.72,1.53-1.51,2.44-2.39l-1.78-.27A1.7,1.7,0,0,0,255.77,478ZM558.48,278.19a13.64,13.64,0,0,0-.93,1.49,3.13,3.13,0,0,0,.77,3.7,1.87,1.87,0,0,0,1.47.42c.38-.15.63-.81.79-1.3.43-1.32-.91-1.87-1.47-2.91l1.62-1.4ZM391.64,503.36c-1.28-.56-2.52-1.09-3.75-1.64a1.39,1.39,0,0,0-2,.57c-.49.94.2,1.51.86,2C388,505.13,389.55,505.44,391.64,503.36Zm6-340.9-2.92,3.85a18.34,18.34,0,0,0,2.55.52,2.11,2.11,0,0,0,2.27-1.68c.12-.57-.48-1.35-.87-2C398.45,162.88,398,162.74,397.6,162.46ZM270.13,487.07c.49.06,1.34.43,1.89.17,1.69-.8,1.64-2.49,1.92-4-2.32-.71-2.91-.35-3.11,1.55A14.34,14.34,0,0,1,270.13,487.07Zm-16.36-20a8.77,8.77,0,0,0,.6,1.75,2.4,2.4,0,0,0,2.91.84c.89-.47,1-1.36.26-2.65-.26-.47-.59-.91-.93-1.42-.24.27-.35.5-.53.58C255.37,466.47,254.65,466.73,253.77,467.06Zm289.74,32.52-2.33-3.13c-.52.71-.89,1.13-1.17,1.6a2.48,2.48,0,0,0,.57,3c1,.76,1.61-.05,2.26-.62A6,6,0,0,0,543.51,499.58Zm-31.88,7.31-1.79.67c.13.58.23,1,.34,1.46l-3,.65,2.93,2.09C511.5,510.39,512.25,509,511.63,506.89ZM243,469.6l3,1.12c.44-1.12.82-2.13,1.28-3.32l-2.54-.23Zm350.54-47.23a13.3,13.3,0,0,0,1.25,2.22,1.84,1.84,0,0,0,1.38.53c.25,0,.59-.71.62-1.11C596.91,422,595.79,421.41,593.51,422.37ZM443.67,503l-.2-.45h-4.1c0,.63-.16,1.44.14,1.71a2,2,0,0,0,1.7.16A17.39,17.39,0,0,0,443.67,503Zm29.09,12.68,2.44,1.14c.55-1.15,1-2.05,1.42-3C475.07,513.55,473.61,513.63,472.76,515.68Zm-207.6-27c-.21-1.23-.34-1.94-.49-2.79l-4.06.59,0,.51Zm-39.58-18.83a4.7,4.7,0,0,0-3.28-3c-.19.87-.33,1.54-.52,2.39Zm215.53,44.56c.46,1.4,1.31,1.84,2.81,1.12.13-.9,1.17-2-.93-2.73C443.5,514.75,441.68,513.55,441.11,514.41Zm93,3.6-2.35,1.43c.87,1.41,1.66,1.83,2.46,1.29S534.91,519,534.09,518Zm58.08-126.72.64.37c.48-.42,1.3-.81,1.35-1.28a2.45,2.45,0,0,0-1.63-2.68C592.4,389.05,592.29,390.17,592.17,391.29Zm-95.1,121.19,3.43.55c-.2-1.14-.33-1.89-.46-2.6C498.49,510.27,498,511.31,497.07,512.48ZM557.15,272c1.41,2.21,1.41,2.21,3.11,2.2-.06-.69-.12-1.36-.19-2.2ZM110.72,476.84c-1.41.77-3.24.19-3.78,2.15C109.9,479,110.49,478.68,110.72,476.84ZM346.8,492.1c1,1.27,1.62,1.44,2.17.63s1-1.67,1.71-3ZM85.19,481.47l2.58,1.11c.61-.7,1.43-1.18.7-2.08s-1.26-.2-1.87.12C86.26,480.81,85.94,481,85.19,481.47Zm362.38,21.61a8.7,8.7,0,0,0,.66,2.61c.21.31,1.15.14,2.2.21C449.6,504.61,449.54,503.41,447.57,503.08ZM161.05,475.72l2.51-2.36c-1.61-.94-2.35,0-3.36.59ZM552,246.26,550,244l-.47.23c.07.94.13,1.88.21,3.14ZM275.31,485.62l1.23-1.15,1.79.5c-.3-1-.51-1.66-.79-2.59C276.48,483.5,275.27,484,275.31,485.62Zm277.27,8.13c-.76.57-1.63,1-1.15,1.89.62,1.1,1.68.57,2.9.3ZM59.13,402.31l.07.48,3.22.17C61.92,401,61.68,401,59.13,402.31Zm505.33-61.16c.74.87,1,2,2.22,2.35C566.93,341.16,566.65,340.85,564.46,341.15ZM603,422.74l-2.59,2.14,3.29.3Zm-420-234c-2.24-1.06-2.78-.83-2.7,1.11ZM292.38,156c-.55,1.33-1.46,2.18-.19,3.22C293.55,158.39,293.18,157.43,292.38,156ZM595.16,517.86c-1.45-1.08-1.68-1-2.68.86C593.56,519.2,594.21,518.37,595.16,517.86ZM57.54,401.66c-.36-1.1-.63-1.91-1.64-1.9-.28,0-.55.55-1,1Zm171.1,66.9c-2.08.56-2.09.61-1.06,2.28Zm4.46,0-1.68-2c-.24.89-.41,1.5-.63,2.33Zm334.23-196.3c-1.54-.68-2.2,0-3,.81C565.56,273.62,566.26,273.08,567.33,272.26Zm-11.75,221.6c1.68,1.05,1.68,1.05,2.61-.3C557.31,492.76,556.65,493.53,555.58,493.86Z" transform="translate(-0.48 -147.03)"/><path class="cls-1" d="M303.88,645.88a1,1,0,0,0,0,.44H301l.05-.52Z" transform="translate(-0.48 -147.03)"/><path class="cls-2" d="M456.47,509.62c-2-1.46-2.19-3.51-1.9-5.92l11,3.31c.37,1,.19,1.85-.69,2.09-2,.55-4,.92-6,1.33-.14,0-.35-.27-.52-.42v-2.37c-1.28.27-1.42.31-1.23,1.13S457,509.57,456.47,509.62Z" transform="translate(-0.48 -147.03)"/><path class="cls-3" d="M525.58,507.86v2.41l2.76.85c-1.47,1.64-4.91,2.56-7.34,1.9-.86,1.69-2.31,1.86-4,1.44-1.46-.34-3-.51-4.54-.78-.22-.9-.43-1.78-.73-3,1.42,1.1,2.16,3.06,4.16,2l1-2.34a3.76,3.76,0,0,1,.75.14c.8.45,1.75,1.45,2.37,1.27a14,14,0,0,0,3.63-2.1A22.51,22.51,0,0,0,525.58,507.86Z" transform="translate(-0.48 -147.03)"/><path class="cls-4" d="M181.29,464.51l1.87-1.65c1.54.71.77,2.19,1.36,3.35,1.92-.91,3.35.06,4.8,1.53a4.36,4.36,0,0,1-3.14.88,11.57,11.57,0,0,1-8.07-4.07,4.27,4.27,0,0,1-.79-1.45.8.8,0,0,1,1.29-.91C179.49,462.86,180.3,463.63,181.29,464.51Z" transform="translate(-0.48 -147.03)"/><path class="cls-5" d="M434.64,503.34c.38,1,.6,1.57.86,2.23l2.84.5v.52c-2.42.5-4.59,2.08-7.28,1.52a1,1,0,0,0-.83.3c-1.43,1.59-3.1,1.3-4.85.73-.66-.22-1.34-.37-2.29-.63,1.91-1.27,3.61-2.18,5.69-1.93a4,4,0,0,0,3.25-1.17C432.8,504.74,433.62,504.14,434.64,503.34Z" transform="translate(-0.48 -147.03)"/><path class="cls-6" d="M58.14,408.86l-1.47-1.21c1.13-.23,2.27-.43,3.38-.73.15,0,.14-.62.14-.64a25,25,0,0,0,2.89-1.5,2.83,2.83,0,0,1,3.51-.07c-.2,1.65-.13,3.41-2,4.33l-1.39-.54c0,.24,0,.48.11.6.48.57,1.12,1.11-.24,1.56l-1.46-1.59-2.26,1C58.77,409.75,59.2,408.56,58.14,408.86Z" transform="translate(-0.48 -147.03)"/><path class="cls-7" d="M559.07,285.36l2,1.5L558,288.34c.42,1.67,1.69,2.22,3.22,2.49-2.85,2.68-3.79,2.74-5.35.49a1.29,1.29,0,0,1,.11-.45c1.57-2.22,1.49-2.91-.53-4.41-.94-.7-.94-.7-.82-2.16l1.73.65Z" transform="translate(-0.48 -147.03)"/><path class="cls-8" d="M589.94,440.89c0-.38.58-.63-.08-1.17-2-1.61-2.14-2.46-1.19-4.47,1.22,2.31,4.57,2,5.47,4.63-.78,1.31-2.09.87-3.46,1,.12.88.21,1.63.31,2.37-.2-.38-.41-.75-.58-1.14S590.09,441.3,589.94,440.89Z" transform="translate(-0.48 -147.03)"/><path class="cls-6" d="M567.81,345.85c.27,1.94,1.64,2.77,3.82,3.2-1.23,1.28-2.14,2.33-3.15,3.27a1,1,0,0,1-1.77-.3c-.57-1.09-1.42-2.12-.26-3.46.44-.5.32-1.48.45-2.24Z" transform="translate(-0.48 -147.03)"/><path class="cls-8" d="M548.4,493.85c-.07.55-.14,1.08-.24,1.79l-2.64-1.73a23.94,23.94,0,0,1,9.8-3.4c-.46,1-.65,1.95-1,2-1.8.38-3.33,2.1-5.4,1.13C548.85,493.65,548.75,493.72,548.4,493.85Z" transform="translate(-0.48 -147.03)"/><path class="cls-9" d="M255.3,472.89l.57,1.12c-.41,1.32-1.44,1.28-2.48,1.09-1.61-.3-3-.38-4.07,1.34-.7,1.11-1.61.48-2.11-.54l.42-1.07c1.28-1.79,2.76-2.64,5-1.45A1.88,1.88,0,0,0,255.3,472.89Z" transform="translate(-0.48 -147.03)"/><path class="cls-10" d="M271.62,492c.91-2.13,2.51-3,3.85-4a1.3,1.3,0,0,1,1.27,0,2,2,0,0,1,.59,1.42c-.12,1.3-2.61,3.44-3.95,3.39A5.52,5.52,0,0,1,271.62,492Z" transform="translate(-0.48 -147.03)"/><path class="cls-11" d="M600.52,516.8l-2.89-2.34,3-.18a23.89,23.89,0,0,1-.15-3.09,1.32,1.32,0,0,1,1.43-1.32c1,.07,1,.85,1,1.59A6.77,6.77,0,0,1,600.52,516.8Z" transform="translate(-0.48 -147.03)"/><path class="cls-9" d="M594.16,429.14c.21.36.65.88.56,1-.92,1.2-.41,2.26.16,3.36a1.14,1.14,0,0,1,0,.7c-.21.81-.12,1.91-1.31,1.95s-1.53-1-1.71-1.92A4.71,4.71,0,0,1,594.16,429.14Z" transform="translate(-0.48 -147.03)"/><path class="cls-4" d="M160,201.71l1.73-1c1,1.95,3.08,3.17,3,5.87h-3.83C161.42,204.78,161.71,203.08,160,201.71Z" transform="translate(-0.48 -147.03)"/><path class="cls-8" d="M589.94,440.89c.15.41.29.82.47,1.22s.38.76.58,1.14c.37.29.74.58,1.12.86l1.3,1-2.72,1.33c-.85.41-1.69.58-2.24-.44-.47-.85-.78-1.63.14-2.55A9.76,9.76,0,0,0,589.94,440.89Z" transform="translate(-0.48 -147.03)"/><path class="cls-12" d="M255.77,478a1.7,1.7,0,0,1,.74,2.56l1.78.27c-.91.88-1.71,1.67-2.44,2.39-.55-.49-1-1.2-1.54-1.34a1.94,1.94,0,0,1-1.64-2.2Z" transform="translate(-0.48 -147.03)"/><path class="cls-7" d="M8.73,483.22l-1.05-1.08,2.64-.62-1.49-1.9c3.3-.59,5.16.42,5.46,2.79Z" transform="translate(-0.48 -147.03)"/><path class="cls-13" d="M558.48,278.19h2.25l-1.62,1.4c.56,1,1.9,1.59,1.47,2.91-.16.49-.41,1.15-.79,1.3a1.87,1.87,0,0,1-1.47-.42,3.13,3.13,0,0,1-.77-3.7A13.64,13.64,0,0,1,558.48,278.19Z" transform="translate(-0.48 -147.03)"/><path class="cls-13" d="M391.64,503.36c-2.09,2.08-3.67,1.77-4.93.89-.66-.45-1.35-1-.86-2a1.39,1.39,0,0,1,2-.57C389.12,502.27,390.36,502.8,391.64,503.36Z" transform="translate(-0.48 -147.03)"/><path class="cls-7" d="M397.6,162.46c.41.28.85.42,1,.72.39.62,1,1.4.87,2a2.11,2.11,0,0,1-2.27,1.68,18.34,18.34,0,0,1-2.55-.52Z" transform="translate(-0.48 -147.03)"/><path class="cls-14" d="M270.13,487.07a14.34,14.34,0,0,0,.7-2.28c.2-1.9.79-2.26,3.11-1.55-.28,1.51-.23,3.2-1.92,4C271.47,487.5,270.62,487.13,270.13,487.07Z" transform="translate(-0.48 -147.03)"/><path class="cls-8" d="M98.44,478.88a9.36,9.36,0,0,1-4.16,3c-.41-1-.8-1.86-1.25-2.93,1.74-1.26,3.66-.26,5.33-.76Z" transform="translate(-0.48 -147.03)"/><path class="cls-9" d="M253.77,467.06c.88-.33,1.6-.59,2.31-.9.18-.08.29-.31.53-.58.34.51.67.95.93,1.42.73,1.29.63,2.18-.26,2.65a2.4,2.4,0,0,1-2.91-.84A8.77,8.77,0,0,1,253.77,467.06Z" transform="translate(-0.48 -147.03)"/><path class="cls-15" d="M543.51,499.58a6,6,0,0,1-.67.88c-.65.57-1.26,1.38-2.26.62a2.48,2.48,0,0,1-.57-3c.28-.47.65-.89,1.17-1.6Z" transform="translate(-0.48 -147.03)"/><path class="cls-16" d="M551,503.31l-4.18-.76.91,1.5A4.46,4.46,0,0,1,543,505.2c-.83-.22-1.68-.34-2.53-.5l1.92-.84a3.22,3.22,0,0,0,3.81-1,10.16,10.16,0,0,1,1-1c.8.14,1.59.32,2.39.41S551,502.29,551,503.31Z" transform="translate(-0.48 -147.03)"/><path class="cls-17" d="M217.42,464.37l-1.14.84.9,1.24a1.23,1.23,0,0,1-2.15-.24c-.74-1.25-1.59-2.14-3.49-1.71a4.79,4.79,0,0,1,5.41-1Z" transform="translate(-0.48 -147.03)"/><path class="cls-11" d="M547.21,501.88a10.16,10.16,0,0,0-1,1,3.22,3.22,0,0,1-3.81,1l-1.6-.95c2.07-.77,3.73-1.44,5.43-2C547,500.64,547.46,501,547.21,501.88Z" transform="translate(-0.48 -147.03)"/><path class="cls-18" d="M37,456.76l1.9.92H37.11l-.47,2.55-4.4-1.49a1.88,1.88,0,0,1,2-1.33A10,10,0,0,0,37,456.76Z" transform="translate(-0.48 -147.03)"/><path class="cls-17" d="M511.63,506.89c.62,2.1-.13,3.5-1.5,4.87l-2.93-2.09,3-.65c-.11-.47-.21-.88-.34-1.46Z" transform="translate(-0.48 -147.03)"/><path class="cls-19" d="M98.44,478.88l-.08-.69c2-2.05,4.21-2.65,6.13-1.65-2.29,2.39-2.73,2.53-4.71,1.45Z" transform="translate(-0.48 -147.03)"/><path class="cls-19" d="M247.63,474.83l-.42,1.07c-1.27,0-.79,1.4-1.89,2l-4.08-.84c1.42-1.06,2.36-1.93,4-1.67A6.7,6.7,0,0,0,247.63,474.83Z" transform="translate(-0.48 -147.03)"/><path class="cls-20" d="M566.4,501.84c.64.48,1.26,1,1.94,1.43.45.29,1,.39,1.45.72a1.17,1.17,0,0,1,.36,1,1.31,1.31,0,0,1-.87.67,2.49,2.49,0,0,1-2.59-1.24c-.46-.64-.53-1.76-1.73-1.64Z" transform="translate(-0.48 -147.03)"/><path class="cls-17" d="M274.51,479.78a5.59,5.59,0,0,1-.84-1.33,1.14,1.14,0,0,1,.49-.93c.87-.53,3.86.07,4.56.89.16.2.11.58.16.87h-3.35Z" transform="translate(-0.48 -147.03)"/><path class="cls-21" d="M243,469.6l1.78-2.43,2.54.23c-.46,1.19-.84,2.2-1.28,3.32Z" transform="translate(-0.48 -147.03)"/><path class="cls-22" d="M394.55,162c0-.32.13-.74,0-.93-1.13-1.45-.57-2.84.1-4.44l2.41-.17c-.59,1.21-1.1,2.1-1.45,3a4.23,4.23,0,0,0,0,1.51Z" transform="translate(-0.48 -147.03)"/><path class="cls-23" d="M21.92,458.08l.56-1.45L21.08,455a5.13,5.13,0,0,1,.8,0,19.5,19.5,0,0,1,2.27.62c1.09.43,1.23,1.34.37,2.15-.49.45-1,.89-1.49,1.33Z" transform="translate(-0.48 -147.03)"/><path class="cls-15" d="M567.82,343.39c.34-.56.55-1.32,1-1.65a1.7,1.7,0,0,1,2.27,1.11c.23,1-.35,1.49-1.25,1.65a8.31,8.31,0,0,1-1.41,0Z" transform="translate(-0.48 -147.03)"/><path class="cls-14" d="M593.51,422.37c2.28-1,3.4-.34,3.25,1.64,0,.4-.37,1.09-.62,1.11a1.84,1.84,0,0,1-1.38-.53A13.3,13.3,0,0,1,593.51,422.37Z" transform="translate(-0.48 -147.03)"/><path class="cls-24" d="M443.67,503a17.39,17.39,0,0,1-2.46,1.42,2,2,0,0,1-1.7-.16c-.3-.27-.11-1.08-.14-1.71h4.1Z" transform="translate(-0.48 -147.03)"/><path class="cls-25" d="M472.76,515.68c.85-2,2.31-2.13,3.86-1.87-.45,1-.87,1.86-1.42,3Z" transform="translate(-0.48 -147.03)"/><path class="cls-26" d="M286.54,167.23a.43.43,0,0,1,0-.44c.66-.39,1.32-.79,2-1.17,1.59-.9,2.63-.49,3.55,1.56C290.15,166.19,288.41,168.06,286.54,167.23Z" transform="translate(-0.48 -147.03)"/><path class="cls-27" d="M268.77,172.55c0-.43.13-1-.64-1s-1.71.16-2.63.25c-.4-1.35.63-1.91,1.16-2.9l2.63,2.13Z" transform="translate(-0.48 -147.03)"/><path class="cls-28" d="M265.16,488.68,260.58,487l0-.51,4.06-.59C264.82,486.74,265,487.45,265.16,488.68Z" transform="translate(-0.48 -147.03)"/><path class="cls-29" d="M225.58,469.85l-3.8-.64c.19-.85.33-1.52.52-2.39A4.7,4.7,0,0,1,225.58,469.85Z" transform="translate(-0.48 -147.03)"/><path class="cls-30" d="M406.1,179.28l1.06,2c.2.76.4,1.52.62,2.38-1.84.23-2.24-1.1-3.46-1.88l1.78-.73Z" transform="translate(-0.48 -147.03)"/><path class="cls-25" d="M441.11,514.41c.57-.86,2.39.34,1.88-1.61,2.1.73,1.06,1.83.93,2.73C442.42,516.25,441.57,515.81,441.11,514.41Z" transform="translate(-0.48 -147.03)"/><path class="cls-31" d="M534.09,518c.82,1,.88,2.2.11,2.72s-1.59.12-2.46-1.29Z" transform="translate(-0.48 -147.03)"/><path class="cls-32" d="M592.17,391.29c.12-1.12.23-2.24.36-3.59a2.45,2.45,0,0,1,1.63,2.68c0,.47-.87.86-1.35,1.28Z" transform="translate(-0.48 -147.03)"/><path class="cls-33" d="M548,512.78l1-.71v3.34l3.94-.55,2,.5-4.38,1-1.73-.85C548.57,514.5,548.3,513.64,548,512.78Z" transform="translate(-0.48 -147.03)"/><path class="cls-14" d="M497.07,512.48c.9-1.17,1.42-2.21,3-2.05.13.71.26,1.46.46,2.6Z" transform="translate(-0.48 -147.03)"/><path class="cls-8" d="M557.15,272h2.92c.07.84.13,1.51.19,2.2C558.56,274.18,558.56,274.18,557.15,272Z" transform="translate(-0.48 -147.03)"/><path class="cls-34" d="M110.72,476.84c-.23,1.84-.82,2.13-3.78,2.15C107.48,477,109.31,477.61,110.72,476.84Z" transform="translate(-0.48 -147.03)"/><path class="cls-35" d="M603.31,516.74c-.22,1.36-.43,2.71-.67,4.21-1.7.13-3.4.46-5-.34h4.83V515.9l.37-.12Z" transform="translate(-0.48 -147.03)"/><path class="cls-36" d="M346.8,492.1l3.88-2.36c-.75,1.32-1.17,2.19-1.71,3S347.82,493.37,346.8,492.1Z" transform="translate(-0.48 -147.03)"/><path class="cls-37" d="M85.19,481.47c.75-.45,1.07-.66,1.41-.85.61-.32,1.23-.91,1.87-.12s-.09,1.38-.7,2.08Z" transform="translate(-0.48 -147.03)"/><path class="cls-38" d="M447.57,503.08c2,.33,2,1.53,2.86,2.82-1.05-.07-2,.1-2.2-.21A8.7,8.7,0,0,1,447.57,503.08Z" transform="translate(-0.48 -147.03)"/><path class="cls-39" d="M540.86,510.5l-1.16-2.12,2.34-.81c-.16,1-.27,1.71-.4,2.59l1.23-.18Z" transform="translate(-0.48 -147.03)"/><path class="cls-40" d="M323.13,494.35c.36-.24.69-.65,1.07-.69,1-.1,2-.05,3.06-.05s1.89-.13,2.27,1.13c.08.24.82.28,1.25.41l-1,.52-1.43.37c.17-.63.31-1.2.55-2.11Z" transform="translate(-0.48 -147.03)"/><path class="cls-41" d="M161.05,475.72,160.2,474c1-.57,1.75-1.53,3.36-.59Z" transform="translate(-0.48 -147.03)"/><path class="cls-18" d="M552,246.26l-2.24,1.14c-.08-1.26-.14-2.2-.21-3.14L550,244Z" transform="translate(-0.48 -147.03)"/><path class="cls-42" d="M275.31,485.62c0-1.63,1.17-2.12,2.23-3.24.28.93.49,1.6.79,2.59l-1.79-.5Z" transform="translate(-0.48 -147.03)"/><path class="cls-40" d="M552.58,493.75l1.75,2.19c-1.22.27-2.28.8-2.9-.3C551,494.79,551.82,494.32,552.58,493.75Z" transform="translate(-0.48 -147.03)"/><path class="cls-24" d="M59.13,402.31c2.55-1.35,2.79-1.32,3.29.65l-3.22-.17Z" transform="translate(-0.48 -147.03)"/><path class="cls-34" d="M564.46,341.15c2.19-.3,2.47,0,2.22,2.35C565.48,343.12,565.2,342,564.46,341.15Z" transform="translate(-0.48 -147.03)"/><path class="cls-43" d="M603,422.74l.7,2.44-3.29-.3Z" transform="translate(-0.48 -147.03)"/><path class="cls-18" d="M274.51,479.78l1-.5c-.19.62.07.89.68.92s1.12.07,1.67.1c0,1.35-1,.91-1.7,1C275,481.52,274.7,480.69,274.51,479.78Z" transform="translate(-0.48 -147.03)"/><path class="cls-44" d="M46.08,451.93l-.95-.88,4-.49C48.47,452.25,47.14,451.77,46.08,451.93Z" transform="translate(-0.48 -147.03)"/><path class="cls-45" d="M183,188.71l-2.7,1.11C180.17,187.88,180.71,187.65,183,188.71Z" transform="translate(-0.48 -147.03)"/><path class="cls-46" d="M553.42,503.27l-1.27.64c-.08.72.92,1.59-.54,2.4-.2-.91-.38-1.73-.55-2.56Z" transform="translate(-0.48 -147.03)"/><path class="cls-47" d="M456.47,509.62c.53-.05.83-.1.66-.85s-.05-.86,1.23-1.13V510Z" transform="translate(-0.48 -147.03)"/><path class="cls-48" d="M292.38,156c.8,1.4,1.17,2.36-.19,3.22C290.92,158.21,291.83,157.36,292.38,156Z" transform="translate(-0.48 -147.03)"/><path class="cls-49" d="M433.38,169.6l1.51,1c-1.23-.38-2.58,1.19-4-.51Z" transform="translate(-0.48 -147.03)"/><path class="cls-50" d="M595.16,517.86c-.95.51-1.6,1.34-2.68.86C593.48,516.87,593.71,516.78,595.16,517.86Z" transform="translate(-0.48 -147.03)"/><path class="cls-51" d="M329.75,495.67l1-.52,1.07-1.22c.64,1.06-.17,1.35-.55,1.81s-1.54.66-1,1.74C328.88,497.27,329.89,496.29,329.75,495.67Z" transform="translate(-0.48 -147.03)"/><path class="cls-52" d="M571.08,366l-.9-2.28h2.07c0,.47-.06.92-.09,1.36Z" transform="translate(-0.48 -147.03)"/><path class="cls-53" d="M30.63,453.41c-1.09,0-1-.62-.77-1.6l3.26,1.08a2.33,2.33,0,0,1,.06.35Z" transform="translate(-0.48 -147.03)"/><path class="cls-45" d="M57.54,401.66l-2.62-.89c.43-.46.7-1,1-1C56.91,399.75,57.18,400.56,57.54,401.66Z" transform="translate(-0.48 -147.03)"/><path class="cls-54" d="M228.64,468.56l-1.06,2.28C226.55,469.17,226.56,469.12,228.64,468.56Z" transform="translate(-0.48 -147.03)"/><path class="cls-55" d="M217.42,464.37l-.47-.89,3.33,1.3C218.86,465.65,218.05,465.47,217.42,464.37Z" transform="translate(-0.48 -147.03)"/><path class="cls-41" d="M233.1,468.56l-2.31.36c.22-.83.39-1.44.63-2.33Z" transform="translate(-0.48 -147.03)"/><path class="cls-56" d="M233.31,464.45l1.48-.46c.51,1.06,0,1.68-.66,2.26Z" transform="translate(-0.48 -147.03)"/><path class="cls-57" d="M277.88,480.3c-.55,0-1.11-.08-1.67-.1s-.87-.3-.68-.92h3.35Z" transform="translate(-0.48 -147.03)"/><path class="cls-58" d="M567.33,272.26c-1.07.82-1.77,1.36-3,.81C565.13,272.24,565.79,271.58,567.33,272.26Z" transform="translate(-0.48 -147.03)"/><path class="cls-59" d="M233.31,464.45l.82,1.8-.81.17c.11-1.2-.85-.42-1.56-.79Z" transform="translate(-0.48 -147.03)"/><path class="cls-60" d="M568.3,500.41l-.87.47-1.25-1.73C567.77,498.44,568.07,499.37,568.3,500.41Z" transform="translate(-0.48 -147.03)"/><path class="cls-38" d="M555.58,493.86c1.07-.33,1.73-1.1,2.61-.3C557.26,494.91,557.26,494.91,555.58,493.86Z" transform="translate(-0.48 -147.03)"/><path class="cls-26" d="M567.82,343.39l.66,1.1-.67,1.36-.91.47C567.2,345.34,567.51,344.37,567.82,343.39Z" transform="translate(-0.48 -147.03)"/><path class="cls-61" d="M30.63,453.41l2.55-.17c.54.52.68,1,0,1.57-.08-.61-.06-1.23-1-1.13A5.74,5.74,0,0,1,30.63,453.41Z" transform="translate(-0.48 -147.03)"/><path class="cls-62" d="M568.75,356.89c.21.69.42,1.39.64,2.1-1.11.28-1.13-.28-1.14-.85C568.42,357.72,568.58,357.3,568.75,356.89Z" transform="translate(-0.48 -147.03)"/><path class="cls-63" d="M599.61,473.83l2.52.37c-.12.6-.5.86-1.19.71Z" transform="translate(-0.48 -147.03)"/><path class="cls-64" d="M150.68,207l-.53-1.88.39-.44,1.07.64Z" transform="translate(-0.48 -147.03)"/><path class="cls-65" d="M525.9,504.16l.6-1,1.13.63c-.18.46-.36.92-.53,1.38Z" transform="translate(-0.48 -147.03)"/><path class="cls-66" d="M413.33,169.71l.58-.9.82,1.39C413.83,171.29,413.84,169.74,413.33,169.71Z" transform="translate(-0.48 -147.03)"/><path class="cls-64" d="M568.75,356.89c-.17.41-.33.83-.5,1.25-.2-.64-.39-1.28-.59-1.92l.47-.22C568.34,356.29,568.54,356.59,568.75,356.89Z" transform="translate(-0.48 -147.03)"/><path class="cls-15" d="M559.07,285.36l-2.74-.41Z" transform="translate(-0.48 -147.03)"/><path class="cls-67" d="M555,515.36l-2-.5a12.63,12.63,0,0,0,2.47-.85c1.68-1,3.17-.43,4.7.3,1.19.57,2.4,1.11,3.79,1.75.74-2.11,1.94-2.6,3.78-1.77.44.2,1.19-.27,1.88-.45,1.26,1.37.13,3.28.78,5.22l1.28-1.41c.22,0,.58,0,.64.14.61,1.29.59,1.3,1.73,1.57l.21-1.57,1.63.11c-.3,1.9-.6,3.73-1,5.86-.74-1.1-1-2.29-2.43-2.46s-2.11.77-2.81,1.91l-3.14-.8c-1.43-1.64,0-2.58,1.13-3.62-2.49-.2-3.53.27-4.31,1.92a18,18,0,0,1,1.85,1c.16.1.11.51.17.79l-2.42.15c.11.41.22.77.28,1l-4,1.56c-.71-.34-2.54.2-3.06-1.82l2.66-1.43L555.32,517l2.33-1.63Z" transform="translate(-0.48 -147.03)"/><path class="cls-19" d="M565.39,522.46c-.06-.28,0-.69-.17-.79a18,18,0,0,0-1.85-1c.78-1.65,1.82-2.12,4.31-1.92-1.15,1-2.56,2-1.13,3.62Z" transform="translate(-0.48 -147.03)"/><path class="cls-68" d="M574.25,517.79l-.21,1.57c-1.14-.27-1.12-.28-1.73-1.57-.06-.12-.42-.1-.64-.14C572.59,516.62,573.39,517.83,574.25,517.79Z" transform="translate(-0.48 -147.03)"/><path d="M527.63,503.8l-1.13-.63.11-.86c.49-.94,1.08-1.66,2.33-1.44a9.94,9.94,0,0,0,1.89,0c.32,1.32-.6,1.86-1.53,2.34A11.76,11.76,0,0,1,527.63,503.8Z" transform="translate(-0.48 -147.03)"/><path class="cls-65" d="M530.83,500.88a9.94,9.94,0,0,1-1.89,0c-1.25-.22-1.84.5-2.33,1.44,0-.52-.06-1.05-.08-1.66C528.05,500.45,529.46,499.94,530.83,500.88Z" transform="translate(-0.48 -147.03)"/></svg>